<svg xmlns="http://www.w3.org/2000/svg" width="46.19" height="54.63" viewBox="0 0 46.19 54.63"><title>footer-calc-icon</title><path d="M558.33,242.46s-2.82-1.5-4,.52a1.56,1.56,0,0,0,.68,2c1.34.76,3.62,1.23,3,3.12-.52,1.65-3.15,1.32-4.42.8" transform="translate(-518.93 -235.84)" fill="none" stroke="#333" stroke-miterlimit="10" stroke-width="1.87"/><line x1="37.21" y1="6.22" x2="37.21" y2="4.35" fill="none" stroke="#333" stroke-miterlimit="10" stroke-width="1.87"/><line x1="37.21" y1="13.61" x2="37.21" y2="15.35" fill="none" stroke="#333" stroke-miterlimit="10" stroke-width="1.87"/><line x1="30.32" y1="28.07" x2="38.06" y2="28.07" fill="none" stroke="#333" stroke-linecap="round" stroke-linejoin="round" stroke-width="1.87"/><line x1="7.62" y1="28.07" x2="15.36" y2="28.07" fill="none" stroke="#333" stroke-linecap="round" stroke-linejoin="round" stroke-width="1.87"/><line x1="11.49" y1="24.2" x2="11.49" y2="31.95" fill="none" stroke="#333" stroke-linecap="round" stroke-linejoin="round" stroke-width="1.87"/><line x1="8.82" y1="42.03" x2="14.29" y2="47.5" fill="none" stroke="#333" stroke-linecap="round" stroke-linejoin="round" stroke-width="1.87"/><line x1="14.29" y1="42.03" x2="8.82" y2="47.5" fill="none" stroke="#333" stroke-linecap="round" stroke-linejoin="round" stroke-width="1.87"/><line x1="30.18" y1="44.68" x2="37.93" y2="44.68" fill="none" stroke="#333" stroke-linecap="round" stroke-linejoin="round" stroke-width="1.87"/><path d="M554.07,276.87a1.09,1.09,0,1,1-1.09-1.09A1.08,1.08,0,0,1,554.07,276.87Z" transform="translate(-518.93 -235.84)" fill="none" stroke="#333" stroke-linecap="round" stroke-linejoin="round" stroke-width="1.25"/><path d="M554.07,284.16a1.09,1.09,0,1,1-1.09-1.09A1.08,1.08,0,0,1,554.07,284.16Z" transform="translate(-518.93 -235.84)" fill="none" stroke="#333" stroke-linecap="round" stroke-linejoin="round" stroke-width="1.25"/><rect x="1.09" y="1.09" width="44" height="52.44" rx="7.5" ry="7.5" fill="none" stroke="#333" stroke-linecap="round" stroke-linejoin="round" stroke-width="2.19"/><line x1="1.09" y1="18.45" x2="45.09" y2="18.45" fill="none" stroke="#333" stroke-linecap="round" stroke-linejoin="round" stroke-width="2.19"/><line x1="4.84" y1="35.99" x2="41.34" y2="35.99" fill="none" stroke="#333" stroke-linecap="round" stroke-linejoin="round" stroke-width="2.19"/><line x1="23.09" y1="49.79" x2="23.09" y2="22.2" fill="none" stroke="#333" stroke-linecap="round" stroke-linejoin="round" stroke-width="2.19"/><path d="M527.4,240.62a3.45,3.45,0,0,0-3.18,3.19" transform="translate(-518.93 -235.84)" fill="none" stroke="#333" stroke-linecap="round" stroke-linejoin="round" stroke-width="2.19"/></svg>