<svg xmlns="http://www.w3.org/2000/svg" width="47" height="54.74" viewBox="0 0 47 54.74"><title>footer-quote-icon</title><path d="M520.35,499a.77.77,0,0,0,.45.45.81.81,0,0,0,.31.06h0a.82.82,0,0,0,.77-.52l3.9-9.58a.77.77,0,0,0,0-.63.83.83,0,0,0-.45-.45l-1.62-.66A2.73,2.73,0,0,0,522,485a2.69,2.69,0,0,0-1.85-.07V474.36a.83.83,0,0,0-.83-.83H492.49l0,0h0l0,0h0l-.13.09-13,10.59a.84.84,0,0,0-.31.64v42.41a.84.84,0,0,0,.84.83h39.58a.83.83,0,0,0,.83-.83V496.85a.19.19,0,0,0,0-.08l2.77-6.81h0l.27-.66.73.29-3.59,8.82A.81.81,0,0,0,520.35,499Zm-28.42-22.93v8.51H481.48Zm26.57,34.74v15.68H480.59V486.29h11.34v8.37a.83.83,0,0,0,.83.83h16.41a.83.83,0,0,0,.83-.83V483.35a.83.83,0,0,0-1.66,0v10.48H493.59V482.44h9.58a.83.83,0,1,0,0-1.66h-9.58v-5.59H518.5v11.05a.68.68,0,0,0,0,.14l0,.1-4.6,11.29h-26.3a.84.84,0,0,0,0,1.67H513.2L511.74,503a.58.58,0,0,0-.19,0H487.86a.83.83,0,1,0,0,1.66h23.22l-1.6,3.91H487.57a.83.83,0,1,0,0,1.66h21.24l-1.44,3.55H487.86a.83.83,0,0,0,0,1.66H507.2l.26,3.37a.82.82,0,0,0,.51.71.85.85,0,0,0,.31.06.79.79,0,0,0,.55-.21l3.18-2.79a.77.77,0,0,0,.22-.31l6.27-15.4Zm-7.73,4.58L509,517l-.18-2.37,10.32-25.33,2,.8ZM522,487.9l-.27.66-2-.8.27-.66a1.06,1.06,0,0,1,2,0A1.08,1.08,0,0,1,522,487.9Z" transform="translate(-478.88 -473.49)" fill="#231f20"/><path d="M519.34,528.23H479.76a.88.88,0,0,1-.88-.87V485a.84.84,0,0,1,.33-.67l13-10.59a.38.38,0,0,1,.13-.09h0l.05,0,0,0h0l0,0h26.82a.87.87,0,0,1,.87.87v10.5a2.8,2.8,0,0,1,1.83.08,2.76,2.76,0,0,1,1.71,2.74l1.59.65a.88.88,0,0,1,.48.47.86.86,0,0,1,0,.67l-3.9,9.58a.87.87,0,0,1-.81.54,1,1,0,0,1-.33-.06.9.9,0,0,1-.47-.47h0a.87.87,0,0,1,0-.67l3.57-8.77-.66-.27-3,7.42a.22.22,0,0,1,0,.08v30.51A.87.87,0,0,1,519.34,528.23Zm-26.58-54.66h-.29l0,0,0,0h0a.36.36,0,0,0-.12.08l-13,10.59a.77.77,0,0,0-.3.61v42.41a.8.8,0,0,0,.8.79h39.58a.8.8,0,0,0,.79-.79V496.85a.22.22,0,0,0,0-.08h0l3-7.5.8.32-3.6,8.85a.79.79,0,0,0,.73,1.09.8.8,0,0,0,.74-.49l3.9-9.58a.81.81,0,0,0,0-.61.77.77,0,0,0-.43-.42l-1.64-.67v0a2.68,2.68,0,0,0-3.49-2.76l0,0V474.36a.8.8,0,0,0-.79-.79Zm25.78,53h-38V486.25H492v8.41a.79.79,0,0,0,.79.8h16.41a.79.79,0,0,0,.79-.8V483.35a.79.79,0,0,0-1.58,0v10.52H493.55V482.4h9.62a.79.79,0,1,0,0-1.58h-9.62v-5.67h25v11.09a.69.69,0,0,0,0,.13h0a1,1,0,0,1,0,.1l-4.61,11.32H487.57a.8.8,0,0,0,0,1.59h25.69l-1.49,3.65h0l-.18,0H487.86a.79.79,0,0,0,0,1.58h23.27l-1.62,4H487.57a.79.79,0,1,0,0,1.58h21.3l-1.47,3.63H487.86a.79.79,0,1,0,0,1.58h19.37l.26,3.41a.8.8,0,0,0,1.32.53l3.17-2.79a.66.66,0,0,0,.21-.29l6.35-15.6Zm-37.91-.08h37.84V501l-6.2,15.22a.9.9,0,0,1-.23.32l-3.18,2.79a.87.87,0,0,1-.58.22.71.71,0,0,1-.32-.07.83.83,0,0,1-.54-.73l-.26-3.34h-19.3a.87.87,0,0,1,0-1.74h19.48l1.41-3.47H487.57a.87.87,0,0,1,0-1.74h21.89l1.56-3.83H487.86a.87.87,0,0,1,0-1.74h23.69l.17,0,1.42-3.48H487.57a.88.88,0,0,1,0-1.75h26.28l4.59-11.27a.36.36,0,0,1,0-.09.57.57,0,0,1,0-.13v-11H493.63v5.51h9.54a.87.87,0,0,1,0,1.74h-9.54v11.31H508.3V483.35a.87.87,0,0,1,1.74,0v11.31a.87.87,0,0,1-.87.87H492.76a.87.87,0,0,1-.87-.87v-8.34H480.63ZM509,517.08l-.19-2.45h0l10.33-25.37,2,.83L510.8,515.46Zm-.11-2.44.18,2.28,1.71-1.51L521,490.13l-1.89-.77Zm12.89-26-2-.83.29-.7a1.1,1.1,0,1,1,2,.83Zm-1.93-.88,1.89.77.25-.62h0a1.05,1.05,0,0,0,0-.78,1,1,0,0,0-.56-.55,1,1,0,0,0-1.33.56ZM492,484.66H481.36L492,476Zm-10.38-.08h10.3v-8.39Z" transform="translate(-478.88 -473.49)" fill="#231f20"/><path d="M510.32,478.77a.83.83,0,0,0-1.16-.18,26.47,26.47,0,0,0-7,8.19,31.64,31.64,0,0,0-1.5,3l-3.22-5.61a.84.84,0,0,0-.51-.39.82.82,0,0,0-.63.08A.84.84,0,0,0,496,485l4.07,7.1a.84.84,0,0,0,.72.42h.09a.82.82,0,0,0,.7-.56c0-.07,2.58-7.55,8.6-12A.82.82,0,0,0,510.32,478.77Z" transform="translate(-478.88 -473.49)" fill="#231f20"/><path d="M500.76,492.52a.86.86,0,0,1-.75-.44l-4.08-7.1a.88.88,0,0,1,.32-1.19.86.86,0,0,1,.66-.09.85.85,0,0,1,.53.41l3.18,5.55c.43-1,.93-2,1.47-2.9a26.59,26.59,0,0,1,7.05-8.2.88.88,0,0,1,1.22.19h0a.87.87,0,0,1-.19,1.21c-6,4.43-8.56,11.89-8.58,12a.86.86,0,0,1-.74.59Zm-4.07-8.77a.8.8,0,0,0-.4.11.79.79,0,0,0-.29,1.08l4.08,7.1a.76.76,0,0,0,.76.39.79.79,0,0,0,.67-.53c0-.08,2.58-7.56,8.61-12a.79.79,0,0,0,.17-1.11h0a.79.79,0,0,0-1.1-.17,26.7,26.7,0,0,0-7,8.18,29.28,29.28,0,0,0-1.49,3l0,.07-3.26-5.68a.72.72,0,0,0-.48-.37A.64.64,0,0,0,496.69,483.75Z" transform="translate(-478.88 -473.49)" fill="#231f20"/><path d="M505.52,520.26a1.62,1.62,0,0,1-1.22-.58,3.19,3.19,0,0,0-4.64,0,1.55,1.55,0,0,1-2.42,0,3.19,3.19,0,0,0-4.64,0,1.55,1.55,0,0,1-2.42,0,3.21,3.21,0,0,0-2.32-1,.83.83,0,1,0,0,1.66,1.6,1.6,0,0,1,1.21.58,3.19,3.19,0,0,0,4.64,0,1.55,1.55,0,0,1,2.42,0,3.19,3.19,0,0,0,4.64,0,1.61,1.61,0,0,1,1.21-.58,1.58,1.58,0,0,1,1.21.58,3.24,3.24,0,0,0,2.33,1,.83.83,0,0,0,0-1.66Z" transform="translate(-478.88 -473.49)" fill="#231f20"/><path d="M505.52,522a3.24,3.24,0,0,1-2.35-1,1.56,1.56,0,0,0-1.19-.57,1.54,1.54,0,0,0-1.18.57,3.23,3.23,0,0,1-4.69,0,1.56,1.56,0,0,0-1.19-.57,1.53,1.53,0,0,0-1.18.57,3.24,3.24,0,0,1-4.7,0,1.53,1.53,0,0,0-1.18-.57.87.87,0,1,1,0-1.74,3.3,3.3,0,0,1,2.35,1,1.51,1.51,0,0,0,2.36,0,3.24,3.24,0,0,1,4.7,0,1.53,1.53,0,0,0,1.18.57,1.56,1.56,0,0,0,1.19-.57,3.23,3.23,0,0,1,4.69,0,1.56,1.56,0,0,0,1.19.57.87.87,0,0,1,0,1.74ZM502,520.3a1.62,1.62,0,0,1,1.24.59,3.18,3.18,0,0,0,2.3,1,.79.79,0,0,0,0-1.58,1.62,1.62,0,0,1-1.24-.59,3.16,3.16,0,0,0-4.59,0,1.62,1.62,0,0,1-1.24.59,1.58,1.58,0,0,1-1.23-.59,3.16,3.16,0,0,0-4.59,0,1.6,1.6,0,0,1-2.48,0,3.15,3.15,0,0,0-2.29-1,.79.79,0,1,0,0,1.58,1.62,1.62,0,0,1,1.24.59,3.14,3.14,0,0,0,4.58,0,1.6,1.6,0,0,1,2.48,0,3.16,3.16,0,0,0,4.59,0A1.6,1.6,0,0,1,502,520.3Z" transform="translate(-478.88 -473.49)" fill="#231f20"/></svg>